# FreeCAD v0.21 build0 Arch module
# http://www.freecad.org
mtllib case_stand.mtl
o Body002
usemtl color_cccccc
v -62.0 -52.5 0.0
v -42.0 -52.5 26.0
v -62.0 -52.5 28.0
v -42.0 -52.5 0.0
v 62.0 -52.5 0.0
v 42.0 -52.5 26.0
v 42.0 -52.5 0.0
v 62.0 -52.5 28.0
v 62.0 -38.357864 -14.142136
v 62.0 -50.5 0.83
v 62.0 -37.527863 -12.142136
v 62.0 -9.0 -43.5
v 62.0 -21.142136 -28.527864
v 62.0 -23.142136 -29.357864
v 62.0 -8.17 -41.5
v 62.0 -30.213203 -14.142136
v 62.0 -23.142136 -21.213203
v 62.0 0.0 -43.5
v 62.0 -29.384777 -12.142136
v 62.0 -21.142136 -20.384777
v 62.0 0.0 -41.5
v 62.0 -50.5 26.0
v 62.0 8.75736 26.0
v 62.0 10.75736 28.0
v 42.0 -38.357864 -14.142136
v 42.0 -15.027864 -34.642136
v 42.0 -15.027864 -37.472137
v 42.0 -23.142136 -29.357864
v 42.0 -37.527863 -12.142136
v 42.0 -50.5 0.83
v 42.0 -21.142136 -28.527864
v 42.0 -23.142136 -21.213203
v 42.0 -30.213203 -14.142136
v 42.0 -21.142136 -20.384777
v 42.0 -29.384777 -12.142136
v 42.0 -50.5 26.0
v -42.0 -50.5 26.0
v -42.0 -50.5 0.83
v -42.0 -38.357864 -14.142136
v -42.0 -37.527863 -12.142136
v -42.0 -30.213203 -14.142136
v -42.0 -29.384777 -12.142136
v -42.0 -23.142136 -21.213203
v -42.0 -21.142136 -20.384777
v -42.0 -21.142136 -28.527864
v -42.0 -23.142136 -29.357864
v -42.0 -15.027864 -34.642136
v -42.0 -15.027864 -37.472137
v -62.0 -38.357864 -14.142136
v -62.0 -50.5 0.83
v -62.0 -37.527863 -12.142136
v -62.0 -21.142136 -28.527864
v -62.0 -9.0 -43.5
v -62.0 -23.142136 -29.357864
v -62.0 -8.17 -41.5
v -62.0 -30.213203 -14.142136
v -62.0 -23.142136 -21.213203
v -62.0 0.0 -43.5
v -62.0 -29.384777 -12.142136
v -62.0 -21.142136 -20.384777
v -62.0 0.0 -41.5
v -62.0 -50.5 26.0
v -62.0 8.75736 26.0
v -62.0 10.75736 28.0
v -47.5 -33.0 28.0
v -48.0 -26.75 28.0
v -47.5 -26.75 28.0
v -40.0 -33.5 28.0
v -40.0 -33.0 28.0
v -22.5 -33.5 28.0
v -59.0 10.75736 28.0
v -48.0 26.75 28.0
v -59.0 27.242641 28.0
v -62.0 42.5 28.0
v -62.0 27.242641 28.0
v -47.5 26.75 28.0
v -47.5 33.0 28.0
v 22.5 -33.5 28.0
v 22.5 -33.0 28.0
v -22.5 -33.0 28.0
v -40.0 33.0 28.0
v -40.0 33.5 28.0
v 40.0 -33.5 28.0
v -22.5 33.5 28.0
v 47.5 -33.0 28.0
v 40.0 -33.0 28.0
v 48.0 -26.75 28.0
v 47.5 -26.75 28.0
v 22.5 33.0 28.0
v 22.5 33.5 28.0
v -22.5 33.0 28.0
v 59.0 10.75736 28.0
v 48.0 26.75 28.0
v 47.5 33.0 28.0
v 47.5 26.75 28.0
v 40.0 33.0 28.0
v 40.0 33.5 28.0
v 59.0 27.242641 28.0
v 62.0 27.242641 28.0
v 62.0 42.5 28.0
v 59.0 -21.142136 -20.384777
v 62.0 25.242641 26.0
v 59.0 -29.384777 -12.142136
v -62.0 41.671574 26.0
v -59.0 25.242641 26.0
v -62.0 25.242641 26.0
v -47.5 33.0 26.0
v -48.0 26.75 26.0
v -47.5 26.75 26.0
v -40.0 33.5 26.0
v -40.0 33.0 26.0
v -59.0 8.75736 26.0
v -22.5 33.5 26.0
v -48.0 -26.75 26.0
v -47.5 -26.75 26.0
v -47.5 -33.0 26.0
v 22.5 33.0 26.0
v -22.5 33.0 26.0
v 22.5 33.5 26.0
v -42.0 -33.0 26.0
v 40.0 33.5 26.0
v 47.5 33.0 26.0
v 40.0 33.0 26.0
v 62.0 41.671574 26.0
v 48.0 26.75 26.0
v 47.5 26.75 26.0
v 59.0 25.242641 26.0
v 59.0 8.75736 26.0
v 48.0 -26.75 26.0
v 47.5 -33.0 26.0
v 47.5 -26.75 26.0
v 42.0 -33.0 26.0
v -40.0 -33.0 26.0
v -40.0 -33.5 26.0
v -22.5 -33.5 26.0
v -22.5 -33.0 26.0
v 22.5 -33.0 26.0
v 22.5 -33.5 26.0
v 40.0 -33.0 26.0
v 40.0 -33.5 26.0
v -59.0 -29.384777 -12.142136
v -59.0 -21.142136 -20.384777
v 62.0 51.085785 16.585787
v 62.0 52.5 18.0
v -62.0 52.5 18.0
v -62.0 51.085785 16.585787
vn 0.0 -1.0 0.0
vn 0.0 -1.0 0.0
vn 0.0 -1.0 0.0
vn 0.0 -1.0 0.0
vn -0.0 -1.0 0.0
vn 0.0 -1.0 0.0
vn 1.0 0.0 0.0
vn 1.0 0.0 -0.0
vn 1.0 0.0 0.0
vn 1.0 0.0 0.0
vn 1.0 0.0 0.0
vn 1.0 0.0 0.0
vn 1.0 0.0 0.0
vn 1.0 0.0 -0.0
vn 1.0 0.0 -0.0
vn 1.0 0.0 -0.0
vn 1.0 -0.0 0.0
vn 1.0 0.0 -0.0
vn 1.0 0.0 0.0
vn 1.0 0.0 -0.0
vn 1.0 0.0 -0.0
vn 1.0 0.0 -0.0
vn 0.0 -0.7071067690849304 -0.7071067690849304
vn -0.0 -0.7071067690849304 -0.7071067690849304
vn -1.0 -0.0 -0.0
vn -1.0 -0.0 0.0
vn -1.0 0.0 0.0
vn -1.0 0.0 -0.0
vn -1.0 0.0 0.0
vn -1.0 0.0 0.0
vn -1.0 0.0 -0.0
vn -1.0 0.0 -0.0
vn -1.0 -0.0 0.0
vn -1.0 0.0 0.0
vn -1.0 0.0 0.0
vn -1.0 -0.0 -0.0
vn 0.0 0.0 -1.0
vn 0.0 0.0 -1.0
vn 1.0 0.0 -0.0
vn 1.0 0.0 0.0
vn 1.0 0.0 -0.0
vn 1.0 0.0 0.0
vn 1.0 0.0 -0.0
vn 1.0 0.0 0.0
vn 1.0 0.0 0.0
vn 1.0 0.0 0.0
vn 1.0 0.0 0.0
vn 1.0 0.0 -0.0
vn 1.0 0.0 0.0
vn 1.0 0.0 -0.0
vn 0.0 -0.7071067690849304 -0.7071067690849304
vn -0.0 -0.7071067690849304 -0.7071067690849304
vn -1.0 0.0 -0.0
vn -1.0 -0.0 0.0
vn -1.0 0.0 -0.0
vn -1.0 0.0 0.0
vn -1.0 0.0 0.0
vn -1.0 0.0 0.0
vn -1.0 0.0 0.0
vn -1.0 -0.0 0.0
vn -1.0 -0.0 0.0
vn -1.0 0.0 -0.0
vn -1.0 0.0 0.0
vn -1.0 -0.0 -0.0
vn -1.0 -0.0 0.0
vn -1.0 0.0 -0.0
vn -1.0 0.0 0.0
vn -1.0 -0.0 0.0
vn 0.0 0.0 1.0
vn 0.0 -0.0 1.0
vn 0.0 0.0 1.0
vn 0.0 -0.0 1.0
vn 0.0 0.0 1.0
vn 0.0 0.0 1.0
vn 0.0 0.0 1.0
vn 0.0 0.0 1.0
vn 0.0 0.0 1.0
vn 0.0 -0.0 1.0
vn 0.0 -0.0 1.0
vn 0.0 -0.0 1.0
vn 0.0 0.0 1.0
vn 0.0 0.0 1.0
vn 0.0 -0.0 1.0
vn 0.0 -0.0 1.0
vn 0.0 -0.0 1.0
vn -0.0 0.0 1.0
vn 0.0 0.0 1.0
vn 0.0 -0.0 1.0
vn 0.0 0.0 1.0
vn 0.0 0.0 1.0
vn 0.0 0.0 1.0
vn 0.0 0.0 1.0
vn 0.0 -0.0 1.0
vn 0.0 0.0 1.0
vn 0.0 -0.0 1.0
vn 0.0 0.0 1.0
vn 0.0 0.0 1.0
vn 0.0 0.0 1.0
vn 0.0 -0.0 1.0
vn 0.0 -0.0 1.0
vn 0.0 -0.0 1.0
vn 0.0 -0.0 1.0
vn 0.0 -0.0 1.0
vn 0.0 -0.0 1.0
vn 0.0 0.0 1.0
vn 0.0 0.0 1.0
vn 0.0 0.0 1.0
vn 0.0 -0.0 1.0
vn 0.0 -0.0 -1.0
vn -0.0 0.0 -1.0
vn -0.0 -0.7071067690849304 -0.7071067690849304
vn -0.0 -0.7071067690849304 -0.7071067690849304
vn 0.0 -1.0 0.0
vn 0.0 -1.0 0.0
vn -7.629394360719743e-08 -0.7071067690849304 -0.7071067690849304
vn 0.0 -0.7071068286895752 -0.7071067094802856
vn 0.0 -0.7071068286895752 -0.7071067094802856
vn 7.629394360719743e-08 -0.7071067690849304 -0.7071067690849304
vn 0.0 -0.7071066498756409 -0.70710688829422
vn 0.0 -0.7071066498756409 -0.70710688829422
vn 0.0 -0.0 -1.0
vn -0.0 0.0 -1.0
vn 0.0 1.0 0.0
vn 0.0 1.0 0.0
vn 0.0 -0.0 1.0
vn 0.0 0.0 1.0
vn 0.0 0.7071067690849304 0.7071067690849304
vn 0.0 0.7071068286895752 0.7071068286895752
vn 0.0 0.7071068286895752 0.7071068286895752
vn 0.0 0.7071067690849304 0.7071067690849304
vn 0.0 0.7071068286895752 0.7071068286895752
vn 0.0 0.7071067690849304 0.7071067690849304
vn 0.0 1.0 0.0
vn 0.0 1.0 0.0
vn 0.0 1.0 0.0
vn 1.0 0.0 -0.0
vn 1.0 0.0 0.0
vn 0.0 0.0 1.0
vn 0.0 -0.0 1.0
vn 0.0 0.0 1.0
vn 0.0 0.7071067094802856 0.7071068286895752
vn 0.0 0.7071067094802856 0.7071068286895752
vn 0.0 1.0 0.0
vn 0.0 1.0 0.0
vn 0.0 0.0 -1.0
vn 0.0 0.0 -1.0
vn 0.0 0.0 -1.0
vn 0.0 -0.0 -1.0
vn 0.0 0.0 -1.0
vn 0.0 -0.0 -1.0
vn 0.0 0.0 -1.0
vn 0.0 0.0 -1.0
vn -0.0 -0.0 -1.0
vn -0.0 -0.0 -1.0
vn -0.0 0.0 -1.0
vn -0.0 0.0 -1.0
vn 0.0 0.0 -1.0
vn -0.0 -0.0 -1.0
vn -0.0 -0.0 -1.0
vn 0.0 -0.0 -1.0
vn 0.0 0.0 -1.0
vn 0.0 0.0 -1.0
vn 0.0 0.0 -1.0
vn 0.0 0.0 -1.0
vn 0.0 0.0 -1.0
vn 0.0 0.0 -1.0
vn 0.0 -0.0 -1.0
vn -0.0 -0.0 -1.0
vn -0.0 0.0 -1.0
vn -0.0 0.0 -1.0
vn -0.0 0.0 -1.0
vn 0.0 -0.0 -1.0
vn 0.0 -0.0 -1.0
vn 0.0 -0.0 -1.0
vn 0.0 0.0 -1.0
vn 0.0 0.0 -1.0
vn 0.0 -0.0 -1.0
vn 0.0 0.0 -1.0
vn 1.0 0.0 0.0
vn 1.0 0.0 -0.0
vn 0.0 -1.0 0.0
vn 0.0 -1.0 0.0
vn 0.0 0.7071067690849304 0.7071067690849304
vn 0.0 0.7071067690849304 0.7071067690849304
vn -0.0 -0.0 -1.0
vn -0.0 0.0 -1.0
vn 0.0 -0.0 -1.0
vn 0.0 0.0 -1.0
vn 0.0 -0.0 -1.0
vn 0.0 -0.0 -1.0
vn 0.0 0.0 -1.0
vn -0.0 -0.0 -1.0
vn 0.0 -0.0 -1.0
vn 0.0 -0.0 -1.0
vn 0.0 1.0 0.0
vn 0.0 1.0 0.0
vn 0.0 0.7071067094802856 0.7071068286895752
vn 0.0 0.7071067094802856 0.7071068286895752
vn 0.0 0.0 1.0
vn 0.0 -0.0 1.0
vn 0.0 0.0 1.0
vn 0.0 0.7071067690849304 0.7071067690849304
vn 0.0 0.7071067690849304 0.7071067690849304
vn 0.0 1.0 0.0
vn 0.0 1.0 0.0
vn 0.0 1.0 0.0
vn 0.0 -1.0 0.0
vn 0.0 -1.0 0.0
vn -0.0 -0.7071067690849304 -0.7071067690849304
vn -0.0 -0.7071067690849304 -0.7071067690849304
vn 0.0 -0.0 -1.0
vn -0.0 0.0 -1.0
vn -1.0 0.0 0.0
vn -1.0 -0.0 0.0
vn -1.0 0.0 0.0
vn -1.0 -0.0 0.0
vn 0.0 -0.0 1.0
vn 0.0 0.0 1.0
vn -0.0 0.0 1.0
vn 0.0 0.0 1.0
vn 1.0 0.0 0.0
vn 1.0 0.0 -0.0
vn 1.0 0.0 -0.0
vn 1.0 0.0 0.0
vn 0.0 0.7071067690849304 0.7071067690849304
vn 0.0 0.7071067690849304 0.7071067690849304
vn -1.0 0.0 0.0
vn -1.0 -0.0 0.0
vn -1.0 -0.0 0.0
vn -1.0 0.0 -0.0
vn 0.0 1.0 0.0
vn 0.0 1.0 0.0
vn -0.0 1.0 0.0
vn -1.0 0.0 0.0
vn -1.0 0.0 0.0
vn 0.0 1.0 0.0
vn -0.0 1.0 0.0
vn 1.0 0.0 0.0
vn 1.0 0.0 0.0
vn -0.0 1.0 0.0
vn 0.0 1.0 0.0
vn -1.0 0.0 0.0
vn -1.0 0.0 0.0
vn 0.0 1.0 0.0
vn -0.0 1.0 0.0
vn 1.0 0.0 0.0
vn 1.0 0.0 0.0
vn 0.0 1.0 0.0
vn 0.0 1.0 0.0
vn -0.0 1.0 0.0
vn 1.0 0.0 0.0
vn 1.0 0.0 0.0
vn -0.0 1.0 0.0
vn 0.0 1.0 0.0
vn 1.0 0.0 0.0
vn 1.0 0.0 0.0
vn -0.0 -1.0 0.0
vn 0.0 -1.0 -0.0
vn 1.0 0.0 0.0
vn 1.0 0.0 0.0
vn -0.0 -1.0 0.0
vn 0.0 -1.0 -0.0
vn 1.0 0.0 0.0
vn 1.0 0.0 0.0
vn 0.0 -1.0 -0.0
vn -0.0 -1.0 0.0
vn -1.0 0.0 0.0
vn -1.0 0.0 0.0
vn -0.0 -1.0 0.0
vn 0.0 -1.0 -0.0
vn 1.0 0.0 0.0
vn 1.0 0.0 0.0
vn 0.0 -1.0 0.0
vn -0.0 -1.0 -0.0
vn -1.0 0.0 0.0
vn -1.0 0.0 0.0
vn -0.0 -1.0 0.0
vn 0.0 -1.0 -0.0
vn -1.0 0.0 0.0
vn -1.0 0.0 0.0
vn -0.0 -1.0 0.0
vn 0.0 -1.0 -0.0
vn -1.0 0.0 0.0
vn -1.0 0.0 0.0
vn -0.0 1.0 0.0
vn 0.0 1.0 0.0
vn -1.0 0.0 0.0
vn -1.0 0.0 0.0
vn 0.0 0.7071067690849304 -0.7071067690849304
vn 0.0 0.7071067690849304 -0.7071067690849304
vn 0.0 -0.7071067690849304 0.7071067690849304
vn 0.0 -0.7071067690849304 0.7071067690849304
vn -1.0 0.0 0.0
vn -1.0 -0.0 0.0
vn 0.0 -0.7071067690849304 0.7071067690849304
vn 0.0 -0.7071067690849304 0.7071067690849304
vn 1.0 0.0 -0.0
vn 1.0 0.0 0.0
vn 0.0 0.7071067690849304 -0.7071067690849304
vn 0.0 0.7071067690849304 -0.7071067690849304
vn 0.0 -0.7071068286895752 -0.7071067094802856
vn -0.0 -0.7071068286895752 -0.7071067094802856
vn 0.0 0.7071062922477722 -0.7071073055267334
vn 0.0 0.7071062922477722 -0.7071073055267334
f 1//1 2//1 3//1 
f 4//2 2//2 1//2 
f 5//3 6//3 7//3 
f 5//4 8//4 6//4 
f 8//5 3//5 6//5 
f 6//6 3//6 2//6 
f 9//7 10//7 5//7 
f 9//8 11//8 10//8 
f 12//9 13//9 14//9 
f 15//10 13//10 12//10 
f 9//11 16//11 11//11 
f 13//12 17//12 14//12 
f 12//13 18//13 15//13 
f 16//14 19//14 11//14 
f 17//15 20//15 16//15 
f 13//16 20//16 17//16 
f 16//17 20//17 19//17 
f 18//18 21//18 15//18 
f 5//19 22//19 8//19 
f 10//20 22//20 5//20 
f 22//21 23//21 8//21 
f 23//22 24//22 8//22 
f 9//23 5//23 7//23 
f 9//24 7//24 25//24 
f 26//25 27//25 28//25 
f 29//26 25//26 7//26 
f 29//27 7//27 30//27 
f 31//28 26//28 28//28 
f 32//29 31//29 28//29 
f 33//30 25//30 29//30 
f 34//31 31//31 32//31 
f 35//32 32//32 33//32 
f 35//33 33//33 29//33 
f 35//34 34//34 32//34 
f 6//35 30//35 7//35 
f 36//36 30//36 6//36 
f 37//37 36//37 6//37 
f 37//38 6//38 2//38 
f 38//39 37//39 2//39 
f 38//40 2//40 4//40 
f 39//41 40//41 38//41 
f 39//42 38//42 4//42 
f 41//43 42//43 40//43 
f 41//44 40//44 39//44 
f 43//45 42//45 41//45 
f 44//46 42//46 43//46 
f 45//47 43//47 46//47 
f 45//48 44//48 43//48 
f 47//49 45//49 46//49 
f 48//50 47//50 46//50 
f 39//51 4//51 1//51 
f 39//52 1//52 49//52 
f 50//53 49//53 1//53 
f 51//54 49//54 50//54 
f 52//55 53//55 54//55 
f 52//56 55//56 53//56 
f 56//57 49//57 51//57 
f 57//58 52//58 54//58 
f 58//59 53//59 55//59 
f 59//60 56//60 51//60 
f 60//61 57//61 56//61 
f 60//62 52//62 57//62 
f 60//63 56//63 59//63 
f 61//64 58//64 55//64 
f 62//65 1//65 3//65 
f 62//66 50//66 1//66 
f 63//67 62//67 3//67 
f 64//68 63//68 3//68 
f 65//69 66//69 3//69 
f 65//70 67//70 66//70 
f 3//71 68//71 65//71 
f 68//72 69//72 65//72 
f 3//73 70//73 68//73 
f 66//74 64//74 3//74 
f 66//75 71//75 64//75 
f 71//76 72//76 73//76 
f 73//77 74//77 75//77 
f 76//78 77//78 72//78 
f 72//79 77//79 73//79 
f 73//80 77//80 74//80 
f 3//81 78//81 70//81 
f 70//82 79//82 80//82 
f 78//83 79//83 70//83 
f 81//84 82//84 77//84 
f 77//85 82//85 74//85 
f 78//86 8//86 83//86 
f 3//87 8//87 78//87 
f 82//88 84//88 74//88 
f 83//89 85//89 86//89 
f 8//90 85//90 83//90 
f 85//91 87//91 88//91 
f 8//92 87//92 85//92 
f 89//93 90//93 91//93 
f 91//94 90//94 84//94 
f 8//95 24//95 87//95 
f 87//96 24//96 92//96 
f 93//97 94//97 95//97 
f 96//98 94//98 97//98 
f 93//99 98//99 94//99 
f 92//100 98//100 93//100 
f 99//101 100//101 98//101 
f 94//102 100//102 97//102 
f 97//103 100//103 90//103 
f 98//104 100//104 94//104 
f 100//105 74//105 90//105 
f 90//106 74//106 84//106 
f 93//107 87//107 92//107 
f 66//108 72//108 71//108 
f 16//109 9//109 25//109 
f 16//110 25//110 33//110 
f 16//111 33//111 32//111 
f 17//112 16//112 32//112 
f 14//113 17//113 32//113 
f 14//114 32//114 28//114 
f 53//115 48//115 54//115 
f 48//116 46//116 54//116 
f 27//117 14//117 28//117 
f 12//118 14//118 27//118 
f 53//119 12//119 48//119 
f 48//120 12//120 27//120 
f 18//121 12//121 53//121 
f 18//122 53//122 58//122 
f 21//123 18//123 58//123 
f 21//124 58//124 61//124 
f 15//125 21//125 61//125 
f 15//126 61//126 55//126 
f 47//127 55//127 52//127 
f 45//128 47//128 52//128 
f 13//129 26//129 31//129 
f 13//130 15//130 26//130 
f 15//131 55//131 47//131 
f 15//132 47//132 26//132 
f 101//133 13//133 31//133 
f 101//134 31//134 34//134 
f 20//135 13//135 101//135 
f 20//136 23//136 19//136 
f 20//137 102//137 23//137 
f 103//138 35//138 29//138 
f 11//139 19//139 103//139 
f 11//140 103//140 29//140 
f 10//141 11//141 30//141 
f 30//142 11//142 29//142 
f 36//143 10//143 30//143 
f 22//144 10//144 36//144 
f 104//145 105//145 106//145 
f 104//146 107//146 105//146 
f 107//147 108//147 105//147 
f 107//148 109//148 108//148 
f 104//149 110//149 107//149 
f 110//150 111//150 107//150 
f 108//151 112//151 105//151 
f 104//152 113//152 110//152 
f 112//153 114//153 63//153 
f 115//154 116//154 114//154 
f 114//155 62//155 63//155 
f 116//156 62//156 114//156 
f 113//157 117//157 118//157 
f 119//158 117//158 113//158 
f 120//159 37//159 116//159 
f 116//160 37//160 62//160 
f 121//161 122//161 123//161 
f 119//162 124//162 121//162 
f 121//163 124//163 122//163 
f 122//164 125//164 126//164 
f 124//165 127//165 122//165 
f 122//166 127//166 125//166 
f 124//167 102//167 127//167 
f 127//168 128//168 125//168 
f 23//169 129//169 128//169 
f 129//170 130//170 131//170 
f 130//171 36//171 132//171 
f 23//172 22//172 129//172 
f 129//173 22//173 130//173 
f 130//174 22//174 36//174 
f 104//175 124//175 113//175 
f 113//176 124//176 119//176 
f 108//177 114//177 112//177 
f 129//178 125//178 128//178 
f 23//179 102//179 24//179 
f 102//180 99//180 24//180 
f 47//181 27//181 26//181 
f 47//182 48//182 27//182 
f 103//183 101//183 34//183 
f 103//184 34//184 35//184 
f 133//185 134//185 120//185 
f 134//186 37//186 120//186 
f 134//187 135//187 37//187 
f 136//188 137//188 135//188 
f 137//189 138//189 135//189 
f 135//190 138//190 37//190 
f 139//191 132//191 140//191 
f 140//192 36//192 138//192 
f 138//193 36//193 37//193 
f 132//194 36//194 140//194 
f 62//195 38//195 50//195 
f 37//196 38//196 62//196 
f 38//197 40//197 50//197 
f 50//198 40//198 51//198 
f 51//199 141//199 59//199 
f 40//200 42//200 141//200 
f 40//201 141//201 51//201 
f 42//202 44//202 142//202 
f 42//203 142//203 141//203 
f 142//204 52//204 60//204 
f 45//205 52//205 142//205 
f 44//206 45//206 142//206 
f 46//207 43//207 57//207 
f 46//208 57//208 54//208 
f 41//209 56//209 57//209 
f 43//210 41//210 57//210 
f 41//211 39//211 49//211 
f 41//212 49//212 56//212 
f 63//213 60//213 59//213 
f 106//214 60//214 63//214 
f 106//215 63//215 64//215 
f 75//216 106//216 64//216 
f 24//217 99//217 92//217 
f 92//218 99//218 98//218 
f 75//219 71//219 73//219 
f 75//220 64//220 71//220 
f 102//221 124//221 99//221 
f 143//222 144//222 124//222 
f 124//223 100//223 99//223 
f 144//224 100//224 124//224 
f 100//225 144//225 74//225 
f 74//226 144//226 145//226 
f 104//227 106//227 75//227 
f 145//228 146//228 104//228 
f 74//229 104//229 75//229 
f 74//230 145//230 104//230 
f 132//231 85//231 130//231 
f 86//232 132//232 139//232 
f 86//233 85//233 132//233 
f 83//234 86//234 140//234 
f 140//235 86//235 139//235 
f 78//236 140//236 138//236 
f 78//237 83//237 140//237 
f 79//238 78//238 137//238 
f 137//239 78//239 138//239 
f 80//240 79//240 137//240 
f 80//241 137//241 136//241 
f 70//242 80//242 136//242 
f 70//243 136//243 135//243 
f 134//244 70//244 135//244 
f 68//245 70//245 134//245 
f 69//246 68//246 134//246 
f 69//247 134//247 133//247 
f 120//248 69//248 133//248 
f 65//249 120//249 116//249 
f 65//250 69//250 120//250 
f 67//251 65//251 116//251 
f 67//252 116//252 115//252 
f 66//253 67//253 115//253 
f 66//254 115//254 114//254 
f 72//255 66//255 114//255 
f 72//256 114//256 108//256 
f 76//257 72//257 108//257 
f 76//258 108//258 109//258 
f 77//259 76//259 109//259 
f 77//260 109//260 107//260 
f 81//261 77//261 107//261 
f 81//262 107//262 111//262 
f 82//263 81//263 110//263 
f 110//264 81//264 111//264 
f 84//265 110//265 113//265 
f 84//266 82//266 110//266 
f 91//267 84//267 118//267 
f 118//268 84//268 113//268 
f 89//269 91//269 118//269 
f 89//270 118//270 117//270 
f 90//271 89//271 117//271 
f 90//272 117//272 119//272 
f 121//273 90//273 119//273 
f 97//274 90//274 121//274 
f 96//275 97//275 121//275 
f 96//276 121//276 123//276 
f 94//277 96//277 123//277 
f 94//278 123//278 122//278 
f 95//279 94//279 122//279 
f 95//280 122//280 126//280 
f 93//281 95//281 126//281 
f 93//282 126//282 125//282 
f 87//283 93//283 125//283 
f 87//284 125//284 129//284 
f 88//285 87//285 129//285 
f 88//286 129//286 131//286 
f 85//287 88//287 131//287 
f 85//288 131//288 130//288 
f 102//289 20//289 101//289 
f 102//290 101//290 127//290 
f 19//291 23//291 103//291 
f 103//292 23//292 128//292 
f 128//293 101//293 103//293 
f 127//294 101//294 128//294 
f 63//295 59//295 141//295 
f 63//296 141//296 112//296 
f 142//297 112//297 141//297 
f 142//298 105//298 112//298 
f 60//299 106//299 105//299 
f 60//300 105//300 142//300 
f 143//301 124//301 104//301 
f 143//302 104//302 146//302 
f 144//303 143//303 145//303 
f 145//304 143//304 146//304 
